<?xml version="1.0" ?><svg height="512" preserveAspectRatio="xMidYMid" viewBox="0 0 512 512" width="512" xmlns="http://www.w3.org/2000/svg" xmlns:xlink="http://www.w3.org/1999/xlink"><defs><style>
      .cls-1 {
        fill: #fff;
      }

      .cls-2 {
        fill: #3f85f4;
      }

      .cls-2, .cls-3 {
        fill-rule: evenodd;
      }

      .cls-3 {
        fill: #000;
        opacity: 0.1;
      }
    </style></defs><circle class="cls-1" cx="256" cy="256" r="256"/><path class="cls-2" d="M256.000,512.000 C114.615,512.000 0.000,397.385 0.000,256.000 C0.000,114.615 114.615,0.000 256.000,0.000 C397.385,0.000 512.000,114.615 512.000,256.000 C512.000,397.385 397.385,512.000 256.000,512.000 ZM355.922,125.266 C355.922,125.266 266.634,124.335 264.174,124.225 C264.174,124.225 253.380,123.723 244.692,124.225 C177.858,122.696 104.820,246.715 233.003,282.005 C233.003,282.005 232.398,307.670 233.003,328.755 C148.651,330.672 74.768,442.328 233.003,470.952 C248.907,473.006 265.343,471.758 276.237,469.503 C287.132,467.248 361.583,456.146 361.583,396.931 C360.305,322.241 289.500,315.994 289.500,289.797 C288.861,275.102 324.348,248.807 330.413,235.256 C335.575,223.718 354.719,179.016 310.931,147.600 C314.673,147.994 353.823,147.600 365.480,147.600 C362.941,136.166 383.639,115.251 383.014,108.643 C381.961,97.526 355.922,125.266 355.922,125.266 ZM275.137,264.675 C251.073,274.246 220.986,255.418 207.937,222.620 C194.889,189.823 203.819,155.476 227.884,145.905 C251.949,136.333 282.035,155.162 295.084,187.959 C308.132,220.757 299.202,255.103 275.137,264.675 ZM326.525,394.981 C326.525,425.105 293.820,449.526 253.475,449.526 C213.130,449.526 180.424,425.105 180.424,394.981 C180.424,364.857 213.130,340.436 253.475,340.436 C293.820,340.436 326.525,364.857 326.525,394.981 Z"/><path class="cls-3" d="M436.999,75.012 C536.959,174.972 536.959,337.039 436.999,436.999 C337.039,536.959 174.972,536.959 75.012,436.999 "/></svg>